<svg xmlns="http://www.w3.org/2000/svg" viewBox="6 1 187 250"><path d="M74 21C84 16 92 9 99 1c13 14 30 26 49 29 15 2 30-2 44-8l1 117c-1 11 0 22-3 32-3 16-12 31-24 42-9 8-19 15-30 19-8 4-18 4-26 10l-11 9c-5-5-11-10-17-13-8-2-15-3-22-6-17-8-33-20-43-37-6-11-10-23-11-35V22c10 4 21 8 32 8 13 1 25-2 36-9"/><path d="M30 95h20v127l-19-15-1-4V95zM70 95h19v142c-6-3-12-5-19-6V95zM109 95h20v136c-7 1-14 3-20 7V95zM149 95h19v111l-19 16V95zM160 65l-7-5-8 5 2-9-7-6 9-1 4-8 3 8 9 1-7 6 2 9zM173 86l-7-5-8 5 2-9-7-6 9-1 4-8 3 8 9 1-7 6 2 9zM147 86l-7-5-8 5 2-9-7-6 9-1 4-8 3 8 9 1-7 6 2 9zM40 86l-7-5-8 5 2-9-7-6 9-1 4-8 3 8 9 1-7 6 2 9zM68 86l-8-5-8 5 2-9-6-6 8-1 4-8 3 8 9 1-7 6 3 9zM94 86l-8-5-7 5 2-9-7-6 9-1 3-8 4 8 9 1-7 6 2 9zM120 86l-7-5-8 5 2-9-7-6 9-1 4-8 3 8 9 1-7 6 2 9zM134 65l-8-5-7 5 2-9-7-6 9-1 3-8 4 8 9 1-7 6 2 9zM107 65l-8-5-8 5 3-9-7-6 9-1 3-8 4 8 8 1-6 6 2 9zM80 65l-7-5-8 5 2-9-7-6 9-1 4-8 3 8 9 1-7 6 2 9zM54 65l-8-5-7 5 2-9-7-6 9-1 3-8 4 8 9 1-7 6 2 9z" fill="#fdca01"/></svg>
